<svg width="20" height="22" viewBox="0 0 20 22" fill="none" xmlns="http://www.w3.org/2000/svg">
<path fill-rule="evenodd" clip-rule="evenodd" d="M6 0.25C6.41421 0.25 6.75 0.585786 6.75 1V1.75L13.25 1.75V1C13.25 0.585786 13.5858 0.25 14 0.25C14.4142 0.25 14.75 0.585786 14.75 1V1.78025C16.2859 1.90808 17.5038 2.44034 18.3621 3.36466C19.3464 4.42465 19.75 5.88503 19.75 7.5L19.75 16C19.75 17.615 19.3464 19.0754 18.3621 20.1353C17.3685 21.2054 15.893 21.75 14 21.75L6 21.75C4.10705 21.75 2.63152 21.2054 1.6379 20.1353C0.653634 19.0754 0.25 17.615 0.25 16L0.25 7.5C0.25 5.88503 0.653634 4.42465 1.6379 3.36466C2.4962 2.44034 3.71409 1.90808 5.25 1.78025V1C5.25 0.585786 5.58579 0.25 6 0.25ZM5.25 4V3.28628C4.06502 3.40668 3.26412 3.81778 2.7371 4.38534C2.12129 5.04852 1.77739 6.03463 1.75157 7.33997L18.2484 7.33997C18.2226 6.03463 17.8787 5.04852 17.2629 4.38534C16.7359 3.81778 15.935 3.40668 14.75 3.28628V4C14.75 4.41421 14.4142 4.75 14 4.75C13.5858 4.75 13.25 4.41421 13.25 4V3.25L6.75 3.25V4C6.75 4.41421 6.41421 4.75 6 4.75C5.58579 4.75 5.25 4.41421 5.25 4ZM1.75 16L1.75 8.83997L18.25 8.83997L18.25 16C18.25 17.385 17.9036 18.4246 17.2629 19.1147C16.6315 19.7946 15.607 20.25 14 20.25L6 20.25C4.39295 20.25 3.36848 19.7946 2.7371 19.1147C2.09637 18.4246 1.75 17.385 1.75 16ZM9.99548 11.7C9.4432 11.7 8.99548 12.1477 8.99548 12.7C8.99548 13.2522 9.4432 13.7 9.99548 13.7H10.0045C10.5568 13.7 11.0045 13.2522 11.0045 12.7C11.0045 12.1477 10.5568 11.7 10.0045 11.7H9.99548ZM5.29431 12.7C5.29431 12.1477 5.74203 11.7 6.29431 11.7H6.30329C6.85558 11.7 7.30329 12.1477 7.30329 12.7C7.30329 13.2522 6.85558 13.7 6.30329 13.7H6.29431C5.74203 13.7 5.29431 13.2522 5.29431 12.7ZM6.29431 14.7C5.74203 14.7 5.29431 15.1477 5.29431 15.7C5.29431 16.2522 5.74203 16.7 6.29431 16.7H6.30329C6.85558 16.7 7.30329 16.2522 7.30329 15.7C7.30329 15.1477 6.85558 14.7 6.30329 14.7H6.29431Z" fill="#333333"/>
</svg>
