<svg width="29" height="29" viewBox="0 0 29 29" fill="none" xmlns="http://www.w3.org/2000/svg">
<g id="Frame 831">
<path id="&#239;&#138;&#160;" d="M16.2047 0.424194V2.35263C18.1121 2.35263 19.899 2.83474 21.5655 3.79896C23.1516 4.74309 24.4165 6.00863 25.3601 7.59557C26.3239 9.26286 26.8057 11.0507 26.8057 12.959H28.7332C28.7332 10.6891 28.161 8.57988 27.0165 6.63135C25.9123 4.74309 24.4165 3.24654 22.5292 2.14171C20.5816 0.996699 18.4735 0.424194 16.2047 0.424194ZM6.23614 3.31685C5.69405 3.31685 5.22222 3.4876 4.82067 3.82909L1.71866 6.99293L1.80901 6.93267C1.30707 7.35451 0.97579 7.8768 0.815169 8.49952C0.674625 9.12225 0.71478 9.72488 0.935635 10.3074C1.49781 11.8743 2.25072 13.4813 3.19437 15.1285C4.5195 17.3985 6.0956 19.4374 7.92267 21.2453C10.854 24.1982 14.4981 26.5284 18.855 28.2359H18.8851C19.4673 28.4367 20.0496 28.4769 20.6318 28.3564C21.2342 28.2359 21.7662 27.9747 22.228 27.573L25.2698 24.5297C25.6713 24.1279 25.8721 23.6357 25.8721 23.0532C25.8721 22.4506 25.6713 21.9484 25.2698 21.5466L21.3245 17.5692C20.923 17.1674 20.421 16.9666 19.8187 16.9666C19.2164 16.9666 18.7144 17.1674 18.3129 17.5692L16.4155 19.4976C14.8896 18.7745 13.5645 17.8806 12.4401 16.8159C11.3158 15.7312 10.4223 14.4154 9.75978 12.8686L11.6872 10.9402C12.1089 10.4983 12.3197 9.97598 12.3197 9.37335C12.3197 8.75062 12.0787 8.24843 11.5969 7.86676L11.6872 7.95715L7.65162 3.82909C7.25007 3.4876 6.77824 3.31685 6.23614 3.31685ZM16.2047 4.28107V6.20951C17.4294 6.20951 18.5538 6.51082 19.5778 7.11346C20.6218 7.7161 21.445 8.5397 22.0473 9.58427C22.6496 10.6088 22.9508 11.7337 22.9508 12.959H24.8783C24.8783 11.3922 24.4868 9.93581 23.7037 8.58992C22.9207 7.28421 21.8767 6.23964 20.5716 5.45621C19.2264 4.67278 17.7708 4.28107 16.2047 4.28107ZM6.23614 5.24529C6.29638 5.24529 6.36665 5.27542 6.44696 5.33568L10.3922 9.37335C10.4123 9.4537 10.3922 9.52401 10.332 9.58427L7.47092 12.4167L7.68174 13.0193L8.07325 13.863C8.39449 14.546 8.76593 15.2089 9.18756 15.8517C9.76981 16.7556 10.4123 17.529 11.115 18.1718C12.0587 19.0959 13.1931 19.9396 14.5182 20.7029C15.1807 21.0846 15.7429 21.3658 16.2047 21.5466L16.807 21.8178L19.7283 18.895C19.7685 18.8548 19.7986 18.8347 19.8187 18.8347C19.8388 18.8347 19.8689 18.8548 19.909 18.895L23.9748 22.9628C24.0149 23.003 24.035 23.0331 24.035 23.0532C24.035 23.0532 24.0149 23.0733 23.9748 23.1135L20.9631 26.0965C20.5214 26.4782 20.0395 26.5786 19.5175 26.3978C15.4217 24.8109 12.0085 22.6414 9.27791 19.8894C7.59139 18.202 6.11568 16.2836 4.85078 14.1342C3.94729 12.5874 3.24457 11.0909 2.74263 9.64453V9.6144C2.66232 9.43361 2.65228 9.22269 2.71251 8.98163C2.77274 8.72049 2.88317 8.51961 3.04379 8.379L6.02533 5.33568C6.08556 5.27542 6.15583 5.24529 6.23614 5.24529ZM16.2047 8.13794V10.0664C17.0078 10.0664 17.6905 10.3476 18.2526 10.9101C18.8148 11.4725 19.0959 12.1555 19.0959 12.959H21.0234C21.0234 12.0953 20.8025 11.2917 20.3608 10.5485C19.9392 9.80524 19.3569 9.22269 18.614 8.80084C17.8712 8.35891 17.0681 8.13794 16.2047 8.13794Z" fill="black"/>
</g>
</svg>
